# xmcd
#
# Track frame offsets: 
#        150
#        13565
#        26275
#        37967
#        49060
#        60062
#        72935
#        86880
#        105362
#        132007
#
# Disc length: 1919 seconds
#
# Revision: 0
# Processed by: cddbd v1.5.2PL0 Copyright (c) Steve Scherf et al.
# Submitted via: ExactAudioCopy v0.99pb4
#
DISCID=6d077d0a
DTITLE=Memphis Slim - The Sonet Blues Story
DYEAR=1967
DGENRE=Blues
TTITLE0=Everyday (I Have The Blues)
TTITLE1=I Am The Blues
TTITLE2=A Long Time Gone
TTITLE3=I Feel Like Ballin' The Jack
TTITLE4=Strange, Strange Feeling (Let's Get With It)
TTITLE5=Only Fools Have Fun
TTITLE6=Broadway Boogie
TTITLE7=Gambler's Blues
TTITLE8=Freedom
TTITLE9=Sassy Mae
EXTD=
EXTT0=
EXTT1=
EXTT2=
EXTT3=
EXTT4=
EXTT5=
EXTT6=
EXTT7=
EXTT8=
EXTT9=
PLAYORDER=
